HIERARCHY
ROOT hip
{
	OFFSET 0.000000 0.000000 0.000000 
	CHANNELS 6 Xposition Yposition Zposition Xrotation Zrotation Yrotation
	JOINT abdomen
	{
		OFFSET 0.000000 3.402643 0.000000 
		CHANNELS 3 Xrotation Zrotation Yrotation
		JOINT chest
		{
			OFFSET 0.000000 8.438565 -0.680529 
			CHANNELS 3 Xrotation Zrotation Yrotation
			JOINT neck
			{
				OFFSET 0.000000 10.207942 -0.272212 
				CHANNELS 3 Xrotation Zrotation Yrotation
				JOINT head
				{
					OFFSET 0.000000 3.130431 0.000000 
					CHANNELS 3 Xrotation Zrotation Yrotation
					End Site
					{
						OFFSET 0.000000 3.130435 0.000000 
					}
				}
			}
			JOINT lCollar
			{
				OFFSET 3.470700 6.669187 -0.816635 
				CHANNELS 3 Yrotation Zrotation Xrotation
				JOINT lShldr
				{
					OFFSET 3.198488 0.000000 0.000000 
					CHANNELS 3 Zrotation Yrotation Xrotation
					JOINT lForeArm
					{
						OFFSET 10.139888 0.000000 0.000000 
						CHANNELS 3 Yrotation Zrotation Xrotation
						JOINT lHand
						{
							OFFSET 8.370511 0.000000 0.000000 
							CHANNELS 3 Zrotation Yrotation Xrotation
							End Site
							{
								OFFSET 4.083176 0.000000 0.000000 
							}
						}
					}
				}
			}
			JOINT rCollar
			{
				OFFSET -3.470700 6.669187 -0.816635 
				CHANNELS 3 Yrotation Zrotation Xrotation
				JOINT rShldr
				{
					OFFSET -3.198488 0.000000 0.000000 
					CHANNELS 3 Zrotation Yrotation Xrotation
					JOINT rForeArm
					{
						OFFSET -10.139888 0.000000 0.000000 
						CHANNELS 3 Yrotation Zrotation Xrotation
						JOINT rHand
						{
							OFFSET -8.370511 0.000000 0.000000 
							CHANNELS 3 Zrotation Yrotation Xrotation
							End Site
							{
								OFFSET -4.083176 0.000000 0.000000 
							}
						}
					}
				}
			}
		}
	}
	JOINT lThigh
	{
		OFFSET 5.308129 -1.633274 1.361059 
		CHANNELS 3 Xrotation Zrotation Yrotation
		JOINT lShin
		{
			OFFSET -2.041588 -20.007561 0.000000 
			CHANNELS 3 Xrotation Zrotation Yrotation
			JOINT lFoot
			{
				OFFSET 0.000000 -19.190928 -1.224953 
				CHANNELS 3 Xrotation Yrotation Zrotation
				End Site
				{
					OFFSET 0.000000 -2.449906 4.627600 
				}
			}
		}
	}
	JOINT rThigh
	{
		OFFSET -5.308129 -1.633274 1.361059 
		CHANNELS 3 Xrotation Zrotation Yrotation
		JOINT rShin
		{
			OFFSET 2.041588 -20.007561 0.000000 
			CHANNELS 3 Xrotation Zrotation Yrotation
			JOINT rFoot
			{
				OFFSET 0.000000 -19.190928 -1.224953 
				CHANNELS 3 Xrotation Yrotation Zrotation
				End Site
				{
					OFFSET 0.000000 -2.449906 4.627600 
				}
			}
		}
	}
}
MOTION
Frames: 20
Frame Time: 0.011111
24.491821 52.851936 -100.852493 0.798207 -4.231640 -10.919528 15.035693 5.668543 3.745177 -15.052732 -3.829669 0.155500 -9.425955 -1.295368 -2.226347 6.854189 6.946936 -4.365627 -3.413843 -5.192144 0.282785 -63.265118 -29.050529 26.265060 -40.978161 5.086479 4.735932 8.524705 12.647240 -41.067760 7.531429 2.224408 -0.396538 69.218781 13.310949 12.991074 50.687420 -7.864997 8.437117 -8.534408 -12.637552 44.437355 -7.800809 20.220457 0.310491 0.887544 -5.970399 -0.840166 -12.614652 8.650195 -1.340158 13.544508 1.122833 0.833389 4.350918 6.009254 1.289147 -34.004929 -9.111670 -4.282961 
24.481518 52.843822 -100.855301 0.845816 -4.229710 -11.089269 14.975958 5.622946 3.889289 -15.092046 -3.813117 0.198568 -9.230978 -1.396086 -2.165693 6.531431 7.232066 -4.282491 -3.413843 -5.192144 0.282785 -63.255024 -28.951830 26.299578 -40.744785 5.000276 4.642367 8.524705 12.647240 -41.067760 7.531429 2.224408 -0.396538 69.237823 13.313580 12.841252 50.645302 -7.855548 8.427561 -8.534408 -12.637552 44.281105 -7.790519 20.268002 0.291365 0.838522 -5.967725 -0.826053 -12.720326 8.722277 -1.305778 13.461954 1.112677 0.765472 4.429020 6.000024 1.315508 -33.905422 -9.030189 -4.195007 
24.473400 52.838200 -100.848129 0.893184 -4.255731 -11.327821 14.906531 5.594692 4.106507 -15.111565 -3.828057 0.267268 -9.152774 -1.356310 -2.184216 6.374365 7.233256 -4.307355 -3.413843 -5.192144 0.282785 -63.252106 -28.775263 26.280197 -40.663548 4.972271 4.620157 8.524705 12.647240 -41.155655 7.531429 2.224408 -0.396538 69.263916 13.267864 12.734985 50.614079 -7.849682 8.416071 -8.534408 -12.637552 44.183453 -7.702835 20.366001 0.270788 0.703205 -5.965876 -0.795279 -13.098210 8.726273 -1.252534 13.402223 1.142323 0.874474 4.498453 6.008950 1.331590 -33.820141 -8.923146 -4.115170 
24.465910 52.832581 -100.840942 0.930575 -4.175119 -11.612765 14.793727 5.450920 4.304318 -15.111594 -3.833330 0.335424 -8.986783 -1.282362 -2.259847 6.205112 7.155271 -4.447384 -3.413843 -5.192144 0.282785 -63.239262 -28.705769 26.085375 -40.501587 4.914763 4.558218 8.524705 12.647240 -41.380260 7.531429 2.224408 -0.396538 69.283302 13.201498 12.717142 50.592693 -7.841220 8.397825 -8.534408 -12.637552 44.193214 -7.604438 20.334949 0.330896 0.624891 -5.965267 -0.797006 -13.318613 8.785005 -1.184016 13.302927 1.034728 0.856704 4.589709 6.013103 1.339569 -33.611897 -8.830535 -4.007407 
24.459667 52.819160 -100.839378 1.044939 -4.128618 -11.806425 14.604735 5.372454 4.435044 -15.121473 -3.826543 0.375775 -8.840422 -1.262138 -2.296512 6.066380 7.140678 -4.511580 -3.413843 -5.192144 0.282785 -63.249142 -28.598694 25.933817 -40.359509 4.863001 4.514091 8.524705 12.647240 -41.507210 7.531429 2.224408 -0.396538 69.285042 13.122831 12.690608 50.572159 -7.839560 8.396805 -8.534408 -12.637552 44.173687 -7.662534 20.353727 0.344091 0.605530 -5.957676 -0.806109 -13.540861 8.808283 -1.154211 13.139958 0.985744 0.844269 4.655064 6.011882 1.345755 -33.477890 -8.728347 -3.891257 
24.454981 52.800735 -100.839073 1.216771 -4.050687 -11.954178 14.328034 5.308442 4.500645 -15.141212 -3.808438 0.398050 -8.694027 -1.240264 -2.323435 5.977509 7.089769 -4.563303 -3.413843 -5.192144 0.282785 -63.279060 -28.483252 25.762232 -40.248802 4.829284 4.473789 8.524705 12.647240 -41.595108 7.531429 2.224408 -0.396538 69.270546 13.022198 12.725952 50.561470 -7.835320 8.387689 -8.534408 -12.637552 44.183453 -7.841759 20.370985 0.325594 0.604523 -5.957785 -0.805108 -13.691388 8.838693 -1.127124 12.909265 0.937098 0.816606 4.732226 6.000814 1.352567 -33.386684 -8.647867 -3.818410 
24.451550 52.778576 -100.839378 1.417519 -3.967689 -12.026190 14.012965 5.263809 4.476440 -15.151229 -3.779906 0.410678 -8.557453 -1.246159 -2.335941 5.947312 7.059803 -4.589097 -3.413843 -5.192144 0.282785 -63.323013 -28.319820 25.595022 -40.177654 4.799142 4.444342 8.524705 12.647240 -41.624401 7.531429 2.224408 -0.396538 69.238388 12.909264 12.791636 50.561470 -7.835320 8.387689 -8.534408 -12.637552 44.212746 -8.111011 20.352301 0.294829 0.674247 -5.959932 -0.821972 -13.795139 8.846168 -1.092662 12.641721 0.888081 0.756601 4.762217 6.001782 1.364971 -33.279030 -8.597180 -3.756211 
24.449362 52.756413 -100.838745 1.618493 -3.885890 -12.038526 13.689350 5.242987 4.410724 -15.161311 -3.740144 0.404567 -8.469707 -1.271766 -2.334404 5.966589 7.013142 -4.612535 -3.413843 -5.192144 0.282785 -63.388752 -28.128548 25.446802 -40.167908 4.800074 4.443233 8.524705 12.647240 -41.595108 7.531429 2.224408 -0.396538 69.196678 12.795013 12.884969 50.561470 -7.835320 8.387689 -8.534408 -12.637552 44.232277 -8.405195 20.335541 0.213831 0.731901 -5.962424 -0.806698 -13.833507 8.853945 -1.074500 12.405541 0.829410 0.677955 4.781930 6.011277 1.347456 -33.205322 -8.577085 -3.710132 
24.446554 52.738304 -100.836266 1.771765 -3.815147 -12.018576 13.434436 5.223271 4.332412 -15.151807 -3.699026 0.377709 -8.440620 -1.328603 -2.326748 6.015683 6.985559 -4.590186 -3.413843 -5.192144 0.282785 -63.456223 -27.917807 25.342770 -40.218250 4.817783 4.467625 8.524705 12.647240 -41.497448 7.531429 2.224408 -0.396538 69.131683 12.707146 12.981552 50.561470 -7.835320 8.387689 -8.534408 -12.637552 44.232277 -8.651641 20.311857 0.158389 0.820593 -5.970562 -0.844768 -13.871964 8.848593 -1.085175 12.225682 0.790843 0.617281 4.769915 6.008488 1.336790 -33.163681 -8.586493 -3.700022 
24.443119 52.725819 -100.833763 1.867610 -3.756718 -11.994497 13.268336 5.216608 4.237277 -15.142379 -3.648910 0.361351 -8.460305 -1.385868 -2.307828 6.093837 6.979410 -4.574652 -3.413843 -5.192144 0.282785 -63.513157 -27.716118 25.302111 -40.299393 4.846337 4.488491 8.524705 12.647240 -41.360729 7.531429 2.224408 -0.396538 69.070602 12.659276 13.053757 50.571121 -7.833358 8.389332 -8.534408 -12.637552 44.212746 -8.807973 20.282007 0.102285 0.859125 -5.974693 -0.837477 -13.873178 8.843115 -1.077155 12.134469 0.761512 0.545800 4.751160 5.998103 1.364019 -33.149136 -8.604466 -3.712930 
24.437811 52.718636 -100.831886 1.915618 -3.718266 -11.967430 13.180618 5.211946 4.160270 -15.142735 -3.598730 0.345623 -8.480073 -1.462438 -2.285991 6.172119 6.982938 -4.558118 -3.413843 -5.192144 0.282785 -63.569157 -27.524164 25.329742 -40.410652 4.887409 4.536003 8.524705 12.647240 -41.184948 7.531429 2.224408 -0.396538 69.019035 12.612719 13.098262 50.561470 -7.835320 8.387689 -8.534408 -12.637552 44.173687 -8.894521 20.259583 0.053224 0.878120 -5.971837 -0.839269 -13.849613 8.845297 -1.077174 12.098759 0.732333 0.518217 4.726501 6.005483 1.341995 -33.129551 -8.601912 -3.708874 
24.430943 52.717075 -100.832207 1.906092 -3.710855 -11.956712 13.161252 5.201074 4.128279 -15.152805 -3.558978 0.339490 -8.480375 -1.539709 -2.274479 6.240221 6.987001 -4.553367 -3.413843 -5.192144 0.282785 -63.613758 -27.350992 25.425913 -40.521633 4.920267 4.566796 8.524705 12.647240 -40.989632 7.531429 2.224408 -0.396538 68.966064 12.575838 13.123238 50.561470 -7.835320 8.387689 -8.534408 -12.637552 44.134628 -8.885242 20.251009 0.074310 0.887561 -5.970397 -0.840166 -13.844423 8.838089 -1.093126 12.128179 0.741887 0.512312 4.691530 6.008223 1.339484 -33.126244 -8.578798 -3.679542 
24.423140 52.714577 -100.833763 1.915666 -3.708832 -11.957343 13.132410 5.205199 4.118925 -15.153022 -3.529767 0.341733 -8.471013 -1.627715 -2.271562 6.288456 7.000563 -4.558144 -3.413843 -5.192144 0.282785 -63.646980 -27.196608 25.556856 -40.633743 4.967779 4.610405 8.524705 12.647240 -40.784557 7.531429 2.224408 -0.396538 68.941673 12.542891 13.115131 50.539894 -7.827443 8.379203 -8.534408 -12.637552 44.105328 -8.893059 20.256510 0.092483 0.918035 -5.975526 -0.843751 -13.860432 8.803109 -1.087864 12.146355 0.751384 0.525265 4.673575 6.010011 1.327993 -33.144909 -8.535183 -3.671814 
24.415022 52.711765 -100.836266 1.925240 -3.706809 -11.957974 13.102796 5.198021 4.144438 -15.162878 -3.519972 0.343080 -8.432254 -1.685653 -2.274132 6.325861 7.045409 -4.600349 -3.413843 -5.192144 0.282785 -63.660984 -27.040857 25.717577 -40.765400 5.013107 4.657358 8.524705 12.647240 -40.579479 7.531429 2.224408 -0.396538 68.945869 12.513883 13.078184 50.508671 -7.821509 8.369082 -8.534408 -12.637552 44.076031 -8.912464 20.266811 0.119836 0.928512 -5.973979 -0.854388 -13.834615 8.789567 -1.097547 12.145617 0.751339 0.535079 4.667265 6.014752 1.346669 -33.157230 -8.521750 -3.674225 
24.407219 52.710205 -100.839378 1.925240 -3.706809 -11.957974 13.083127 5.197534 4.182438 -15.162810 -3.530454 0.352071 -8.413068 -1.737512 -2.296745 6.363008 7.101078 -4.651139 -3.413843 -5.192144 0.282785 -63.663605 -26.903889 25.882938 -40.906853 5.057178 4.704850 8.524705 12.647240 -40.403702 7.531429 2.224408 -0.396538 68.969116 12.487494 13.018478 50.477448 -7.815557 8.357645 -8.534408 -12.637552 44.056499 -8.924813 20.281984 0.129032 0.928510 -5.973982 -0.854388 -13.818398 8.778798 -1.103442 12.152744 0.780685 0.550534 4.655138 6.011826 1.345753 -33.164711 -8.536808 -3.675111 
24.400038 52.710518 -100.842194 1.915708 -3.728352 -11.957997 13.082533 5.197554 4.249918 -15.172387 -3.561092 0.369914 -8.383901 -1.732440 -2.337990 6.400630 7.128678 -4.713121 -3.413843 -5.192144 0.282785 -63.647022 -26.765553 26.034573 -41.048920 5.108326 4.759843 8.524705 12.647240 -40.237682 7.531429 2.224408 -0.396538 69.020950 12.465048 12.908287 50.435539 -7.805316 8.338446 -8.534408 -12.637552 44.027203 -8.921762 20.314444 0.137677 0.947422 -5.970917 -0.856181 -13.817078 8.781102 -1.103736 12.158969 0.800285 0.584024 4.656165 6.011023 1.345720 -33.177383 -8.567481 -3.699490 
24.393171 52.712082 -100.845009 1.906219 -3.769417 -11.958665 13.112041 5.221803 4.337031 -15.172041 -3.612006 0.395404 -8.432744 -1.711057 -2.378964 6.457205 7.139597 -4.794596 -3.413843 -5.192144 0.282785 -63.617332 -26.665476 26.166897 -41.181526 5.159575 4.803338 8.524705 12.647240 -40.081432 7.531429 2.224408 -0.396538 69.095779 12.485222 12.776919 50.382954 -7.790754 8.310177 -8.534408 -12.637552 43.968605 -8.911625 20.372215 0.137728 0.947414 -5.970919 -0.856181 -13.807300 8.778667 -1.105778 12.201515 0.868547 0.618743 4.643005 6.008890 1.344835 -33.200161 -8.593657 -3.733376 
24.387239 52.713326 -100.848740 1.896774 -3.830002 -11.959965 13.161130 5.260884 4.438296 -15.161826 -3.671986 0.409788 -8.501019 -1.671206 -2.422091 6.504854 7.120917 -4.878529 -3.413843 -5.192144 0.282785 -63.574566 -26.603653 26.299454 -41.303043 5.197486 4.843705 8.524705 12.647240 -39.915417 7.531429 2.224408 -0.396538 69.178741 12.516383 12.613608 50.320515 -7.778676 8.288729 -8.534408 -12.637552 43.900249 -8.932008 20.451786 0.104836 0.955825 -5.969416 -0.846323 -13.803290 8.766001 -1.112169 12.240670 0.937117 0.692818 4.644000 6.008115 1.344804 -33.245518 -8.618940 -3.746359 
24.381306 52.713326 -100.852806 1.896973 -3.888885 -11.952147 13.191211 5.315480 4.522585 -15.141828 -3.732790 0.433253 -8.549684 -1.611354 -2.468967 6.522942 7.108835 -4.946981 -3.413843 -5.192144 0.282785 -63.519604 -26.570354 26.427879 -41.424587 5.235181 4.883376 8.524705 12.647240 -39.729870 7.531429 2.224408 -0.396538 69.258904 12.566894 12.471959 50.247398 -7.762209 8.259572 -8.534408 -12.637552 43.831890 -8.950550 20.528437 0.111080 0.977511 -5.975941 -0.868513 -13.820746 8.754793 -1.116402 12.271217 1.005291 0.746399 4.637059 6.013530 1.344008 -33.278713 -8.643768 -3.780091 
24.375376 52.712708 -100.857178 1.897220 -3.938331 -11.934248 13.191229 5.352977 4.598829 -15.111954 -3.802671 0.445541 -8.588667 -1.570491 -2.513393 6.541815 7.076232 -5.005880 -3.413843 -5.192144 0.282785 -63.474239 -26.537737 26.575594 -41.526443 5.275357 4.931489 8.524705 12.647240 -39.544327 7.531429 2.224408 -0.396538 69.330925 12.606423 12.348276 50.184971 -7.749972 8.238216 -8.534408 -12.637552 43.773296 -8.982183 20.591619 0.087556 0.995684 -5.972492 -0.840043 -13.797242 8.753641 -1.108627 12.301348 1.073971 0.800073 4.619980 6.014418 1.343254 -33.303963 -8.664213 -3.799191 
